PathFileType	4	(X/Y/Z)	S:\OneDrive - The University of Tokyo\ìåëÂéˆã∆\ÉoÉCÉÅÉJ\ë™íË\hirabayashi_2\Trimmed\Trimmed_BarR20kg1.trc
DataRate	CameraRate	NumFrames	NumMarkers	Units	OrigDataRate	OrigDataStartFrame	OrigNumFrames
200.00	200.00	       17	12	mm	200.00	196	       313
Frame#	Time	BarR0			BarR50			BarR100			BarR130			BarR180			BarR230			BarL0			BarL50			BarL100			BarL130			BarL180			BarL230			
		X1	Y1	Z1	X2	Y2	Z2	X3	Y3	Z3	X4	Y4	Z4	X5	Y5	Z5	X6	Y6	Z6	X7	Y7	Z7	X8	Y8	Z8	X9	Y9	Z9	X10	Y10	Z10	X11	Y11	Z11	X12	Y12	Z12	

196	0.975	-576.34161	2754.88672	1664.24048	-603.90900	2305.60254	1657.80981	-637.92896	1851.79736	1654.49475	-660.48114	1349.61169	1654.42200	-689.78546	902.97400	1658.47229	-713.76178	455.07962	1664.10962	-1113.49731	2808.14404	1664.65369	-1140.76721	2356.48975	1667.95227	-1171.25427	1906.03052	1668.90393	-1199.00732	1404.27454	1669.27283	-1226.83081	952.63977	1668.40698	-1244.69629	506.44559	1667.65649	
197	0.980	-576.35522	2754.91309	1664.23010	-603.89484	2305.64746	1657.83142	-637.88745	1851.82971	1654.49866	-660.48438	1349.59375	1654.42261	-689.76953	902.97723	1658.46289	-713.76520	455.08313	1664.11682	-1113.48682	2808.15649	1664.66467	-1140.77136	2356.52563	1667.93066	-1171.27747	1906.04822	1668.91895	-1199.00415	1404.28918	1669.25598	-1226.83240	952.64453	1668.41174	-1244.71497	506.45547	1667.64038	
198	0.985	-576.35938	2754.92651	1664.23157	-603.89716	2305.64233	1657.81628	-637.91553	1851.79358	1654.50854	-660.47607	1349.59705	1654.41699	-689.76154	902.99933	1658.46912	-713.76447	455.06494	1664.11267	-1113.48633	2808.16553	1664.64160	-1140.77051	2356.49316	1667.94055	-1171.27795	1906.03308	1668.92261	-1198.99573	1404.26465	1669.25940	-1226.83105	952.63605	1668.40503	-1244.69983	506.46701	1667.65527	
199	0.990	-576.34875	2754.91309	1664.23206	-603.88452	2305.60938	1657.83606	-637.87433	1851.80298	1654.50134	-660.49548	1349.61060	1654.43335	-689.77612	902.98297	1658.45740	-713.78009	455.06781	1664.11475	-1113.47534	2808.16113	1664.65063	-1140.76318	2356.50977	1667.93921	-1171.26233	1906.04089	1668.92444	-1198.99207	1404.31653	1669.25549	-1226.84485	952.62213	1668.40576	-1244.69434	506.46820	1667.65344	
200	0.995	-576.34680	2754.89917	1664.22815	-603.92169	2305.62500	1657.82056	-637.90948	1851.78503	1654.50330	-660.50342	1349.61609	1654.42700	-689.76031	902.96393	1658.46973	-713.76508	455.02512	1664.12598	-1113.48840	2808.16724	1664.65686	-1140.76245	2356.53076	1667.94775	-1171.27795	1906.04211	1668.91479	-1199.00159	1404.27795	1669.26172	-1226.83545	952.62683	1668.40637	-1244.70056	506.46979	1667.66431	
201	1.000	-576.34930	2754.91040	1664.23071	-603.87982	2305.63550	1657.82288	-637.91418	1851.83948	1654.49670	-660.48175	1349.58789	1654.42456	-689.77979	902.94720	1658.47168	-713.77740	455.08420	1664.11926	-1113.49487	2808.14795	1664.66504	-1140.76965	2356.51855	1667.95215	-1171.27490	1906.01245	1668.92114	-1198.99731	1404.30786	1669.25317	-1226.82397	952.64240	1668.41199	-1244.70984	506.45032	1667.64697	
202	1.005	-576.36212	2754.91479	1664.24524	-603.86719	2305.65063	1657.82227	-637.90948	1851.84546	1654.48425	-660.48273	1349.60840	1654.43164	-689.75793	902.97900	1658.47180	-713.75476	455.07556	1664.11243	-1113.52283	2808.15210	1664.64343	-1140.76160	2356.50513	1667.94812	-1171.26904	1906.03430	1668.92114	-1198.99255	1404.27563	1669.27246	-1226.30664	952.72504	1668.40930	-1244.71741	506.46906	1667.64709	
203	1.010	-576.34491	2754.89771	1664.23254	-603.89514	2305.65039	1657.82007	-637.92236	1851.81921	1654.50269	-660.50116	1349.62134	1654.43079	-689.78064	903.00085	1658.46924	-713.76398	455.06400	1664.12378	-1113.51038	2808.16992	1664.63635	-1140.76526	2356.51807	1667.95728	-1171.26160	1906.04028	1668.93713	-1198.99329	1404.31531	1669.25806	-1226.29041	952.73645	1668.40662	-1244.69458	506.46576	1667.65833	
204	1.015	-576.34967	2754.89111	1664.22998	-603.90466	2305.64795	1657.82068	-637.89136	1851.83264	1654.50903	-660.46332	1349.60901	1654.43225	-689.76508	902.97754	1658.47168	-713.77429	455.08347	1664.11157	-1113.49866	2808.13574	1664.67395	-1140.77722	2356.50537	1667.94421	-1171.27905	1906.04639	1668.91113	-1198.99658	1404.30212	1669.25647	-1226.83154	952.63647	1668.40771	-1244.69202	506.43030	1667.65027	
205	1.020	-576.34497	2754.89233	1664.23352	-603.91443	2305.63403	1657.81726	-637.91669	1851.80457	1654.49463	-660.47870	1349.59631	1654.43311	-689.76154	902.98407	1658.46899	-713.76923	455.08441	1664.11182	-1113.54358	2808.16113	1664.65564	-1140.77161	2356.51587	1667.93323	-1171.26208	1906.03674	1668.93201	-1199.00024	1404.25659	1669.25183	-1226.81921	952.63153	1668.40308	-1244.70972	506.45868	1667.64807	
206	1.025	-576.35736	2754.91138	1664.22351	-603.87598	2305.62769	1657.80518	-637.90820	1851.84070	1654.49341	-660.47583	1349.62170	1654.42896	-689.76001	902.96948	1658.46777	-713.76648	455.06464	1664.11682	-1113.53284	2808.14746	1664.65356	-1140.77112	2356.50171	1667.95081	-1171.27881	1906.03564	1668.92285	-1198.99683	1404.29358	1669.25598	-1226.82947	952.63220	1668.40039	-1244.69531	506.44980	1667.65784	
207	1.030	-576.34857	2754.91748	1664.22839	-603.88959	2305.64429	1657.82593	-637.87372	1851.81982	1654.48596	-660.47150	1349.63269	1654.44092	-689.75537	902.98901	1658.48328	-713.77063	455.07724	1664.11938	-1113.49805	2808.12817	1664.65027	-1140.76294	2356.51831	1667.95386	-1171.26636	1906.02136	1668.91479	-1198.98132	1404.26709	1669.25769	-1226.82910	952.63049	1668.41467	-1244.71399	506.44525	1667.64978	
208	1.035	-576.34686	2754.92236	1664.23621	-603.89594	2305.64722	1657.81714	-637.90314	1851.80542	1654.51050	-660.48718	1349.60327	1654.43542	-689.77203	902.95880	1658.44946	-713.76495	455.07675	1664.12463	-1113.50903	2808.15625	1664.65295	-1140.77332	2356.50562	1667.95288	-1171.26160	1906.03003	1668.91626	-1199.00317	1404.28271	1669.26331	-1226.83508	952.64478	1668.41699	-1244.69055	506.45139	1667.64868	
209	1.040	-576.33435	2754.89844	1664.23792	-603.87250	2305.64307	1657.82800	-637.87726	1851.83264	1654.51355	-660.47546	1349.59802	1654.44434	-689.76575	903.00873	1658.47705	-713.78802	455.08765	1664.12219	-1113.49988	2808.16772	1664.66260	-1140.76611	2356.51611	1667.95520	-1171.27161	1906.02502	1668.91748	-1199.01575	1404.29041	1669.26929	-1226.83435	952.64056	1668.41187	-1244.69409	506.44641	1667.65759	
210	1.045	-576.35724	2754.92090	1664.23560	-603.89392	2305.62695	1657.82288	-637.89008	1851.85168	1654.49292	-660.47406	1349.63342	1654.42505	-689.76154	902.98456	1658.47107	-713.78271	455.06454	1664.10400	-1113.49194	2808.16748	1664.66052	-1140.77319	2356.52710	1667.95715	-1171.25720	1906.03528	1668.92566	-1198.98828	1404.27698	1669.26477	-1226.32129	952.72314	1668.39917	-1244.70349	506.44998	1667.65735	
211	1.050	-576.34570	2754.89551	1664.23633	-603.89764	2305.65991	1657.82104	-637.87823	1851.80322	1654.49561	-660.47662	1349.62683	1654.42993	-689.76416	903.00873	1658.47559	-713.75909	455.08173	1664.11926	-1113.48840	2808.12695	1664.66333	-1140.77124	2356.52490	1667.96509	-1171.25830	1906.05103	1668.92078	-1199.00061	1404.29016	1669.25195	-1226.82312	952.65131	1668.41479	-1244.70789	506.46500	1667.66162	
212	1.055	-576.36090	2754.91577	1664.23120	-603.87799	2305.63013	1657.83130	-637.89960	1851.80981	1654.48462	-660.48352	1349.59436	1654.42505	-689.76910	902.98444	1658.46228	-713.76788	455.07031	1664.11304	-1113.50891	2808.18604	1664.64807	-1140.77100	2356.50439	1667.96326	-1171.26318	1906.05627	1668.92261	-1198.99646	1404.28918	1669.26587	-1226.82825	952.62170	1668.42371	-1244.67957	506.44659	1667.65442	
